<svg xmlns="http://www.w3.org/2000/svg" viewBox="0 0 680 200" fill="none">
  <rect width="680" height="200" rx="16" fill="#0d1117"/>
  <defs>
    <pattern id="g" width="40" height="40" patternUnits="userSpaceOnUse">
      <path d="M40 0L0 0 0 40" fill="none" stroke="#161b22" stroke-width="1"/>
    </pattern>
  </defs>
  <rect width="680" height="200" fill="url(#g)"/>
  <g transform="translate(40,40)">
    <rect width="120" height="120" rx="16" fill="#1a2332" stroke="#9945ff" stroke-width="2.5"/>
    <path d="M24 35 L96 35 L86 50 L14 50Z" fill="#9945ff" opacity="0.9"/>
    <path d="M14 55 L86 55 L96 70 L24 70Z" fill="#14f195" opacity="0.7"/>
    <path d="M24 75 L96 75 L86 90 L14 90Z" fill="#9945ff" opacity="0.5"/>
    <circle cx="88" cy="98" r="10" fill="none" stroke="#e6edf3" stroke-width="1.5" opacity="0.4"/>
    <line x1="95" y1="105" x2="104" y2="114" stroke="#e6edf3" stroke-width="1.5" opacity="0.4" stroke-linecap="round"/>
  </g>
  <text x="195" y="72" font-family="'Segoe UI',system-ui,sans-serif" font-size="46" fill="#e6edf3" font-weight="700" letter-spacing="-1">SOL Wallet</text>
  <text x="195" y="118" font-family="'Segoe UI',system-ui,sans-serif" font-size="46" fill="#9945ff" font-weight="700" letter-spacing="-1">Scanner</text>
  <text x="197" y="148" font-family="'Segoe UI',system-ui,sans-serif" font-size="14" fill="#7d8590">Solana &#x94B1;&#x5305;&#x626B;&#x63CF; | &#x968F;&#x673A;&#x5BC6;&#x94A5;&#x751F;&#x6210; | &#x90AE;&#x4EF6;&#x901A;&#x77E5;</text>
  <g transform="translate(197,162)">
    <rect width="66" height="22" rx="11" fill="#1a2332" stroke="#9945ff" stroke-width="1"/>
    <text x="33" y="15" font-family="monospace" font-size="10" fill="#9945ff" text-anchor="middle">Python</text>
    <rect x="76" width="70" height="22" rx="11" fill="#1a2332" stroke="#14f195" stroke-width="1"/>
    <text x="111" y="15" font-family="monospace" font-size="10" fill="#14f195" text-anchor="middle">Solders</text>
    <rect x="156" width="60" height="22" rx="11" fill="#1a2332" stroke="#58a6ff" stroke-width="1"/>
    <text x="186" y="15" font-family="monospace" font-size="10" fill="#58a6ff" text-anchor="middle">SMTP</text>
  </g>
</svg>